<svg xmlns="http://www.w3.org/2000/svg" xmlns:xlink="http://www.w3.org/1999/xlink" xmlns:s="https://github.com/nturley/netlistsvg" width="980" height="404.5">
  <style>svg {
    stroke:#000;
    fill:none;
  }
  text {
    fill:#000;
    stroke:none;
    font-size:10px;
    font-weight: bold;
    font-family: "Courier New", monospace;
  }
  .nodelabel {
    text-anchor: middle;
  }
  .inputPortLabel {
    text-anchor: end;
  }
  .splitjoinBody {
    fill:#000;
  }</style>
  <g s:type="not" transform="translate(340.5,44.5)" s:width="30" s:height="20" id="cell_$logic_not$svLDL.v:29$8">
    <s:alias val="$_NOT_"/>
    <s:alias val="$not"/>
    <s:alias val="$logic_not"/>
    <path d="M0,0 L0,20 L20,10 Z" class="cell_$logic_not$svLDL.v:29$8"/>
    <circle cx="23" cy="10" r="3" class="cell_$logic_not$svLDL.v:29$8"/>
    <g s:x="0" s:y="10" s:pid="A"/>
    <g s:x="25" s:y="10" s:pid="Y"/>
  </g>
  <g s:type="dff" transform="translate(751,240)" s:width="30" s:height="40" id="cell_$procdff$43">
    <s:alias val="$dff"/>
    <s:alias val="$_DFF_"/>
    <s:alias val="$_DFF_P_"/>
    <rect width="30" height="40" x="0" y="0" class="cell_$procdff$43"/>
    <path d="M0,35 L5,30 L0,25" class="cell_$procdff$43"/>
    <g s:x="30" s:y="10" s:pid="Q"/>
    <g s:x="0" s:y="30" s:pid="CLK"/>
    <g s:x="0" s:y="30" s:pid="C"/>
    <g s:x="0" s:y="10" s:pid="D"/>
  </g>
  <g s:type="mux" transform="translate(553.3333333333334,105)" s:width="20" s:height="40" id="cell_$procmux$25">
    <s:alias val="$pmux"/>
    <s:alias val="$mux"/>
    <s:alias val="$_MUX_"/>
    <path d="M0,0 L20,10 L20,30 L0,40 Z" class="cell_$procmux$25"/>
    <g s:x="0" s:y="10" s:pid="A"/>
    <g s:x="0" s:y="30" s:pid="B"/>
    <g s:x="10" s:y="35" s:pid="S"/>
    <g s:x="20" s:y="20" s:pid="Y"/>
  </g>
  <g s:type="mux" transform="translate(653.6666666666666,95)" s:width="20" s:height="40" id="cell_$procmux$28">
    <s:alias val="$pmux"/>
    <s:alias val="$mux"/>
    <s:alias val="$_MUX_"/>
    <path d="M0,0 L20,10 L20,30 L0,40 Z" class="cell_$procmux$28"/>
    <g s:x="0" s:y="10" s:pid="A"/>
    <g s:x="0" s:y="30" s:pid="B"/>
    <g s:x="10" s:y="35" s:pid="S"/>
    <g s:x="20" s:y="20" s:pid="Y"/>
  </g>
  <g s:type="generic" transform="translate(166,44)" s:width="30" s:height="40" id="cell_$reduce_or$svLDL.v:29$7">
    <text x="15" y="-4" class="nodelabel cell_$reduce_or$svLDL.v:29$7" s:attribute="ref">$reduce_or</text>
    <rect width="30" height="20" s:generic="body" class="cell_$reduce_or$svLDL.v:29$7"/>
    <g transform="translate(0,10)" s:x="0" s:y="10" s:pid="in0" id="port_$reduce_or$svLDL.v:29$7~A">
      <text x="-3" y="-4" class="inputPortLabel cell_$reduce_or$svLDL.v:29$7">A</text>
    </g>
    <g transform="translate(30,10)" s:x="30" s:y="10" s:pid="out0" id="port_$reduce_or$svLDL.v:29$7~Y">
      <text x="5" y="-4" style="fill:#000; stroke:none" class="cell_$reduce_or$svLDL.v:29$7">Y</text>
    </g>
  </g>
  <g s:type="reduce_xor" transform="translate(91,65.5)" s:width="33" s:height="25" id="cell_$xor$svLDL.v:29$4">
    <s:alias val="$xor"/>
    <s:alias val="$reduce_xor"/>
    <s:alias val="$_XOR_"/>
    <path d="M3,0 A30 25 0 0 1 3,25 A30 25 0 0 0 33,12.5 A30 25 0 0 0 3,0" class="cell_$xor$svLDL.v:29$4"/>
    <path d="M0,0 A30 25 0 0 1 0,25" class="cell_$xor$svLDL.v:29$4"/>
    <g s:x="3" s:y="5" s:pid="A"/>
    <g s:x="3" s:y="20" s:pid="B"/>
    <g s:x="33" s:y="12.5" s:pid="Y"/>
  </g>
  <g s:type="reduce_xor" transform="translate(198.66666666666666,110)" s:width="33" s:height="25" id="cell_$xor$svLDL.v:29$5">
    <s:alias val="$xor"/>
    <s:alias val="$reduce_xor"/>
    <s:alias val="$_XOR_"/>
    <path d="M3,0 A30 25 0 0 1 3,25 A30 25 0 0 0 33,12.5 A30 25 0 0 0 3,0" class="cell_$xor$svLDL.v:29$5"/>
    <path d="M0,0 A30 25 0 0 1 0,25" class="cell_$xor$svLDL.v:29$5"/>
    <g s:x="3" s:y="5" s:pid="A"/>
    <g s:x="3" s:y="20" s:pid="B"/>
    <g s:x="33" s:y="12.5" s:pid="Y"/>
  </g>
  <g s:type="reduce_xor" transform="translate(339,125)" s:width="33" s:height="25" id="cell_$xor$svLDL.v:29$6">
    <s:alias val="$xor"/>
    <s:alias val="$reduce_xor"/>
    <s:alias val="$_XOR_"/>
    <path d="M3,0 A30 25 0 0 1 3,25 A30 25 0 0 0 33,12.5 A30 25 0 0 0 3,0" class="cell_$xor$svLDL.v:29$6"/>
    <path d="M0,0 A30 25 0 0 1 0,25" class="cell_$xor$svLDL.v:29$6"/>
    <g s:x="3" s:y="5" s:pid="A"/>
    <g s:x="3" s:y="20" s:pid="B"/>
    <g s:x="33" s:y="12.5" s:pid="Y"/>
  </g>
  <g s:type="reduce_xor" transform="translate(407,132.5)" s:width="33" s:height="25" id="cell_$xor$svLDL.v:29$9">
    <s:alias val="$xor"/>
    <s:alias val="$reduce_xor"/>
    <s:alias val="$_XOR_"/>
    <path d="M3,0 A30 25 0 0 1 3,25 A30 25 0 0 0 33,12.5 A30 25 0 0 0 3,0" class="cell_$xor$svLDL.v:29$9"/>
    <path d="M0,0 A30 25 0 0 1 0,25" class="cell_$xor$svLDL.v:29$9"/>
    <g s:x="3" s:y="5" s:pid="A"/>
    <g s:x="3" s:y="20" s:pid="B"/>
    <g s:x="33" s:y="12.5" s:pid="Y"/>
  </g>
  <g s:type="generic" transform="translate(642,259.5)" s:width="30" s:height="40" id="cell_clk_n">
    <text x="15" y="-4" class="nodelabel cell_clk_n" s:attribute="ref">$paramod\clk_div\MAX=s32'00000000000000000000000000010111</text>
    <rect width="30" height="20" s:generic="body" class="cell_clk_n"/>
    <g transform="translate(0,10)" s:x="0" s:y="10" s:pid="in0" id="port_clk_n~clk">
      <text x="-3" y="-4" class="inputPortLabel cell_clk_n">clk</text>
    </g>
    <g transform="translate(30,10)" s:x="30" s:y="10" s:pid="out0" id="port_clk_n~clk_div">
      <text x="5" y="-4" style="fill:#000; stroke:none" class="cell_clk_n">clk_div</text>
    </g>
  </g>
  <g s:type="generic" transform="translate(841,349.5)" s:width="30" s:height="40" id="cell_d">
    <text x="15" y="-4" class="nodelabel cell_d" s:attribute="ref">digits</text>
    <rect width="30" height="40" s:generic="body" class="cell_d"/>
    <g transform="translate(0,10)" s:x="0" s:y="10" s:pid="in0" id="port_d~clk">
      <text x="-3" y="-4" class="inputPortLabel cell_d">clk</text>
    </g>
    <g transform="translate(0,30)" s:x="0" s:y="10" s:pid="in0" id="port_d~data">
      <text x="-3" y="-4" class="inputPortLabel cell_d">data</text>
    </g>
    <g transform="translate(30,10)" s:x="30" s:y="10" s:pid="out0" id="port_d~digit">
      <text x="5" y="-4" style="fill:#000; stroke:none" class="cell_d">digit</text>
    </g>
    <g transform="translate(30,30)" s:x="30" s:y="10" s:pid="out0" id="port_d~seg">
      <text x="5" y="-4" style="fill:#000; stroke:none" class="cell_d">seg</text>
    </g>
  </g>
  <g s:type="inputExt" transform="translate(546,350)" s:width="30" s:height="20" id="cell_clk">
    <text x="15" y="-4" class="nodelabel cell_clk" s:attribute="ref">clk</text>
    <s:alias val="$_inputExt_"/>
    <path d="M0,0 L0,20 L15,20 L30,10 L15,0 Z" class="cell_clk"/>
    <g s:x="28" s:y="10" s:pid="Y"/>
  </g>
  <g s:type="inputExt" transform="translate(546,229.5)" s:width="30" s:height="20" id="cell_rst_off">
    <text x="15" y="-4" class="nodelabel cell_rst_off" s:attribute="ref">rst_off</text>
    <s:alias val="$_inputExt_"/>
    <path d="M0,0 L0,20 L15,20 L30,10 L15,0 Z" class="cell_rst_off"/>
    <g s:x="28" s:y="10" s:pid="Y"/>
  </g>
  <g s:type="inputExt" transform="translate(475,199.5)" s:width="30" s:height="20" id="cell_rst_on">
    <text x="15" y="-4" class="nodelabel cell_rst_on" s:attribute="ref">rst_on</text>
    <s:alias val="$_inputExt_"/>
    <path d="M0,0 L0,20 L15,20 L30,10 L15,0 Z" class="cell_rst_on"/>
    <g s:x="28" s:y="10" s:pid="Y"/>
  </g>
  <g s:type="outputExt" transform="translate(938,305)" s:width="30" s:height="20" id="cell_digit">
    <text x="15" y="-4" class="nodelabel cell_digit" s:attribute="ref">digit</text>
    <s:alias val="$_outputExt_"/>
    <path d="M30,0 L30,20 L15,20 L0,10 L15,0 Z" class="cell_digit"/>
    <g s:x="0" s:y="10" s:pid="A"/>
  </g>
  <g s:type="outputExt" transform="translate(938,240)" s:width="30" s:height="20" id="cell_led">
    <text x="15" y="-4" class="nodelabel cell_led" s:attribute="ref">led</text>
    <s:alias val="$_outputExt_"/>
    <path d="M30,0 L30,20 L15,20 L0,10 L15,0 Z" class="cell_led"/>
    <g s:x="0" s:y="10" s:pid="A"/>
  </g>
  <g s:type="outputExt" transform="translate(938,370)" s:width="30" s:height="20" id="cell_seg">
    <text x="15" y="-4" class="nodelabel cell_seg" s:attribute="ref">seg</text>
    <s:alias val="$_outputExt_"/>
    <path d="M30,0 L30,20 L15,20 L0,10 L15,0 Z" class="cell_seg"/>
    <g s:x="0" s:y="10" s:pid="A"/>
  </g>
  <g s:type="constant" transform="translate(475,57.5)" s:width="30" s:height="20" id="cell_11111111">
    <text x="15" y="-4" class="nodelabel cell_11111111" s:attribute="ref">0xff</text>
    <s:alias val="$_constant_"/>
    <rect width="30" height="20" class="cell_11111111"/>
    <g s:x="30" s:y="10" s:pid="Y"/>
  </g>
  <g s:type="constant" transform="translate(546,50)" s:width="30" s:height="20" id="cell_00000000">
    <text x="15" y="-4" class="nodelabel cell_00000000" s:attribute="ref">0x0</text>
    <s:alias val="$_constant_"/>
    <rect width="30" height="20" class="cell_00000000"/>
    <g s:x="30" s:y="10" s:pid="Y"/>
  </g>
  <g s:type="join" transform="translate(494,114.5)" s:width="4" s:height="40" id="cell_$join$,10,11,12,13,14,15,16,36,">
    <rect width="5" height="40" class="splitjoinBody" s:generic="body"/>
    <s:alias val="$_join_"/>
    <g s:x="5" s:y="20" s:pid="out"/>
    <g transform="translate(0,10)" s:x="0" s:y="10" s:pid="in0">
      <text x="-3" y="-4" class="inputPortLabel">0:6</text>
    </g>
    <g transform="translate(0,30)" s:x="0" s:y="10" s:pid="in0">
      <text x="-3" y="-4" class="inputPortLabel">7</text>
    </g>
  </g>
  <g s:type="split" transform="translate(32,35)" s:width="5" s:height="40" id="cell_$split$,9,10,11,12,13,14,15,16,">
    <rect width="5" height="100" class="splitjoinBody" s:generic="body"/>
    <s:alias val="$_split_"/>
    <g s:x="0" s:y="20" s:pid="in"/>
    <g transform="translate(4,10)" s:x="4" s:y="10" s:pid="out0">
      <text x="5" y="-4">1:7</text>
    </g>
    <g transform="translate(4,30)" s:x="4" s:y="10" s:pid="out0">
      <text x="5" y="-4">4</text>
    </g>
    <g transform="translate(4,50)" s:x="4" s:y="10" s:pid="out0">
      <text x="5" y="-4">3</text>
    </g>
    <g transform="translate(4,70)" s:x="4" s:y="10" s:pid="out0">
      <text x="5" y="-4">2</text>
    </g>
    <g transform="translate(4,90)" s:x="4" s:y="10" s:pid="out0">
      <text x="5" y="-4">0</text>
    </g>
  </g>
  <line x1="197" x2="340.5" y1="54.5" y2="54.5" class="net_25"/>
  <line x1="673" x2="751" y1="270" y2="270" class="net_27"/>
  <line x1="673.6666666666666" x2="726" y1="115" y2="115" class="net_28,29,30,31,32,33,34,35"/>
  <line x1="726" x2="726" y1="115" y2="250" class="net_28,29,30,31,32,33,34,35"/>
  <line x1="726" x2="751" y1="250" y2="250" class="net_28,29,30,31,32,33,34,35"/>
  <line x1="505" x2="521" y1="67.5" y2="67.5" class="net_48,49,50,51,52,53,54,55"/>
  <line x1="521" x2="521" y1="67.5" y2="115" class="net_48,49,50,51,52,53,54,55"/>
  <line x1="521" x2="553.3333333333334" y1="115" y2="115" class="net_48,49,50,51,52,53,54,55"/>
  <line x1="500" x2="553.3333333333334" y1="135" y2="135" class="net_10,11,12,13,14,15,16,36"/>
  <line x1="503" x2="563.3333333333334" y1="209.5" y2="209.5" class="net_4"/>
  <line x1="563.3333333333334" x2="563.3333333333334" y1="209.5" y2="140" class="net_4"/>
  <line x1="576" x2="598" y1="60" y2="60" class="net_56,57,58,59,60,61,62,63"/>
  <line x1="598" x2="598" y1="60" y2="105" class="net_56,57,58,59,60,61,62,63"/>
  <line x1="598" x2="653.6666666666666" y1="105" y2="105" class="net_56,57,58,59,60,61,62,63"/>
  <line x1="573.3333333333334" x2="653.6666666666666" y1="125" y2="125" class="net_37,38,39,40,41,42,43,44"/>
  <line x1="574" x2="663.6666666666666" y1="239.5" y2="239.5" class="net_3"/>
  <line x1="663.6666666666666" x2="663.6666666666666" y1="239.5" y2="130" class="net_3"/>
  <line x1="37" x2="66" y1="45.5" y2="45.5" class="net_10,11,12,13,14,15,16"/>
  <line x1="66" x2="66" y1="45.5" y2="54.5" class="net_10,11,12,13,14,15,16"/>
  <line x1="66" x2="166" y1="54.5" y2="54.5" class="net_10,11,12,13,14,15,16"/>
  <line x1="37" x2="66" y1="45.5" y2="45.5" class="net_10,11,12,13,14,15,16"/>
  <line x1="66" x2="66" y1="45.5" y2="54.5" class="net_10,11,12,13,14,15,16"/>
  <line x1="66" x2="134" y1="54.5" y2="54.5" class="net_10,11,12,13,14,15,16"/>
  <line x1="134" x2="134" y1="54.5" y2="23" class="net_10,11,12,13,14,15,16"/>
  <line x1="134" x2="450" y1="23" y2="23" class="net_10,11,12,13,14,15,16"/>
  <line x1="450" x2="450" y1="23" y2="125" class="net_10,11,12,13,14,15,16"/>
  <circle cx="134" cy="54.5" r="2" style="fill:#000" class="net_10,11,12,13,14,15,16"/>
  <line x1="450" x2="494" y1="125" y2="125" class="net_10,11,12,13,14,15,16"/>
  <line x1="37" x2="66" y1="65.5" y2="65.5" class="net_13"/>
  <line x1="66" x2="66" y1="65.5" y2="70.5" class="net_13"/>
  <line x1="66" x2="94" y1="70.5" y2="70.5" class="net_13"/>
  <line x1="37" x2="94" y1="85.5" y2="85.5" class="net_12"/>
  <line x1="124" x2="134" y1="78" y2="78" class="net_45"/>
  <line x1="134" x2="134" y1="78" y2="115" class="net_45"/>
  <line x1="134" x2="201.66666666666666" y1="115" y2="115" class="net_45"/>
  <line x1="37" x2="66" y1="105.5" y2="105.5" class="net_11"/>
  <line x1="66" x2="66" y1="105.5" y2="130" class="net_11"/>
  <line x1="66" x2="201.66666666666666" y1="130" y2="130" class="net_11"/>
  <line x1="231.66666666666666" x2="314" y1="122.5" y2="122.5" class="net_46"/>
  <line x1="314" x2="314" y1="122.5" y2="130" class="net_46"/>
  <line x1="314" x2="342" y1="130" y2="130" class="net_46"/>
  <line x1="36.5" x2="36.5" y1="126" y2="145" class="net_9"/>
  <line x1="36.5" x2="342" y1="145" y2="145" class="net_9"/>
  <line x1="372" x2="410" y1="137.5" y2="137.5" class="net_47"/>
  <line x1="365.5" x2="382" y1="54.5" y2="54.5" class="net_26"/>
  <line x1="382" x2="382" y1="54.5" y2="152.5" class="net_26"/>
  <line x1="382" x2="410" y1="152.5" y2="152.5" class="net_26"/>
  <line x1="574" x2="598" y1="360" y2="360" class="net_2"/>
  <line x1="598" x2="598" y1="360" y2="270" class="net_2"/>
  <circle cx="598" cy="360" r="2" style="fill:#000" class="net_2"/>
  <line x1="598" x2="642" y1="270" y2="270" class="net_2"/>
  <line x1="574" x2="841" y1="360" y2="360" class="net_2"/>
  <line x1="781" x2="791" y1="250" y2="250" class="net_9,10,11,12,13,14,15,16"/>
  <line x1="791" x2="791" y1="250" y2="380" class="net_9,10,11,12,13,14,15,16"/>
  <line x1="791" x2="841" y1="380" y2="380" class="net_9,10,11,12,13,14,15,16"/>
  <line x1="781" x2="938" y1="250" y2="250" class="net_9,10,11,12,13,14,15,16"/>
  <line x1="781" x2="791" y1="250" y2="250" class="net_9,10,11,12,13,14,15,16"/>
  <line x1="791" x2="791" y1="250" y2="12" class="net_9,10,11,12,13,14,15,16"/>
  <line x1="791" x2="12" y1="12" y2="12" class="net_9,10,11,12,13,14,15,16"/>
  <line x1="12" x2="12" y1="12" y2="55.5" class="net_9,10,11,12,13,14,15,16"/>
  <circle cx="791" cy="250" r="2" style="fill:#000" class="net_9,10,11,12,13,14,15,16"/>
  <line x1="12" x2="32" y1="55.5" y2="55.5" class="net_9,10,11,12,13,14,15,16"/>
  <line x1="872" x2="913" y1="360" y2="360" class="net_5,6,7,8"/>
  <line x1="913" x2="913" y1="360" y2="315" class="net_5,6,7,8"/>
  <line x1="913" x2="938" y1="315" y2="315" class="net_5,6,7,8"/>
  <line x1="872" x2="938" y1="380" y2="380" class="net_17,18,19,20,21,22,23,24"/>
  <line x1="440" x2="494" y1="145" y2="145" class="net_36"/>
</svg>
